<?xml version='1.0' encoding='UTF-8'?>
<svg width="41mm" height="41mm" version="1.1" viewBox="0 0 41 41" xmlns="http://www.w3.org/2000/svg"><path d="M4,4H5V5H4zM5,4H6V5H5zM6,4H7V5H6zM7,4H8V5H7zM8,4H9V5H8zM9,4H10V5H9zM10,4H11V5H10zM15,4H16V5H15zM16,4H17V5H16zM18,4H19V5H18zM19,4H20V5H19zM23,4H24V5H23zM27,4H28V5H27zM30,4H31V5H30zM31,4H32V5H31zM32,4H33V5H32zM33,4H34V5H33zM34,4H35V5H34zM35,4H36V5H35zM36,4H37V5H36zM4,5H5V6H4zM10,5H11V6H10zM14,5H15V6H14zM19,5H20V6H19zM21,5H22V6H21zM24,5H25V6H24zM25,5H26V6H25zM27,5H28V6H27zM30,5H31V6H30zM36,5H37V6H36zM4,6H5V7H4zM6,6H7V7H6zM7,6H8V7H7zM8,6H9V7H8zM10,6H11V7H10zM13,6H14V7H13zM16,6H17V7H16zM18,6H19V7H18zM21,6H22V7H21zM24,6H25V7H24zM28,6H29V7H28zM30,6H31V7H30zM32,6H33V7H32zM33,6H34V7H33zM34,6H35V7H34zM36,6H37V7H36zM4,7H5V8H4zM6,7H7V8H6zM7,7H8V8H7zM8,7H9V8H8zM10,7H11V8H10zM13,7H14V8H13zM15,7H16V8H15zM16,7H17V8H16zM17,7H18V8H17zM19,7H20V8H19zM21,7H22V8H21zM23,7H24V8H23zM25,7H26V8H25zM27,7H28V8H27zM30,7H31V8H30zM32,7H33V8H32zM33,7H34V8H33zM34,7H35V8H34zM36,7H37V8H36zM4,8H5V9H4zM6,8H7V9H6zM7,8H8V9H7zM8,8H9V9H8zM10,8H11V9H10zM14,8H15V9H14zM15,8H16V9H15zM17,8H18V9H17zM20,8H21V9H20zM21,8H22V9H21zM23,8H24V9H23zM27,8H28V9H27zM30,8H31V9H30zM32,8H33V9H32zM33,8H34V9H33zM34,8H35V9H34zM36,8H37V9H36zM4,9H5V10H4zM10,9H11V10H10zM12,9H13V10H12zM13,9H14V10H13zM15,9H16V10H15zM16,9H17V10H16zM24,9H25V10H24zM25,9H26V10H25zM26,9H27V10H26zM28,9H29V10H28zM30,9H31V10H30zM36,9H37V10H36zM4,10H5V11H4zM5,10H6V11H5zM6,10H7V11H6zM7,10H8V11H7zM8,10H9V11H8zM9,10H10V11H9zM10,10H11V11H10zM12,10H13V11H12zM14,10H15V11H14zM16,10H17V11H16zM18,10H19V11H18zM20,10H21V11H20zM22,10H23V11H22zM24,10H25V11H24zM26,10H27V11H26zM28,10H29V11H28zM30,10H31V11H30zM31,10H32V11H31zM32,10H33V11H32zM33,10H34V11H33zM34,10H35V11H34zM35,10H36V11H35zM36,10H37V11H36zM13,11H14V12H13zM16,11H17V12H16zM18,11H19V12H18zM21,11H22V12H21zM23,11H24V12H23zM24,11H25V12H24zM25,11H26V12H25zM4,12H5V13H4zM7,12H8V13H7zM9,12H10V13H9zM10,12H11V13H10zM12,12H13V13H12zM14,12H15V13H14zM15,12H16V13H15zM16,12H17V13H16zM17,12H18V13H17zM18,12H19V13H18zM19,12H20V13H19zM20,12H21V13H20zM23,12H24V13H23zM25,12H26V13H25zM27,12H28V13H27zM29,12H30V13H29zM31,12H32V13H31zM5,13H6V14H5zM7,13H8V14H7zM13,13H14V14H13zM16,13H17V14H16zM20,13H21V14H20zM22,13H23V14H22zM24,13H25V14H24zM28,13H29V14H28zM29,13H30V14H29zM30,13H31V14H30zM31,13H32V14H31zM36,13H37V14H36zM4,14H5V15H4zM5,14H6V15H5zM7,14H8V15H7zM10,14H11V15H10zM11,14H12V15H11zM12,14H13V15H12zM13,14H14V15H13zM14,14H15V15H14zM15,14H16V15H15zM16,14H17V15H16zM21,14H22V15H21zM23,14H24V15H23zM24,14H25V15H24zM25,14H26V15H25zM26,14H27V15H26zM28,14H29V15H28zM30,14H31V15H30zM31,14H32V15H31zM32,14H33V15H32zM34,14H35V15H34zM36,14H37V15H36zM4,15H5V16H4zM5,15H6V16H5zM8,15H9V16H8zM9,15H10V16H9zM11,15H12V16H11zM12,15H13V16H12zM14,15H15V16H14zM15,15H16V16H15zM16,15H17V16H16zM18,15H19V16H18zM19,15H20V16H19zM20,15H21V16H20zM21,15H22V16H21zM28,15H29V16H28zM29,15H30V16H29zM32,15H33V16H32zM33,15H34V16H33zM36,15H37V16H36zM4,16H5V17H4zM7,16H8V17H7zM9,16H10V17H9zM10,16H11V17H10zM12,16H13V17H12zM13,16H14V17H13zM14,16H15V17H14zM19,16H20V17H19zM23,16H24V17H23zM28,16H29V17H28zM30,16H31V17H30zM33,16H34V17H33zM35,16H36V17H35zM4,17H5V18H4zM11,17H12V18H11zM15,17H16V18H15zM17,17H18V18H17zM19,17H20V18H19zM20,17H21V18H20zM21,17H22V18H21zM26,17H27V18H26zM28,17H29V18H28zM30,17H31V18H30zM32,17H33V18H32zM33,17H34V18H33zM35,17H36V18H35zM36,17H37V18H36zM5,18H6V19H5zM6,18H7V19H6zM7,18H8V19H7zM10,18H11V19H10zM11,18H12V19H11zM12,18H13V19H12zM15,18H16V19H15zM16,18H17V19H16zM21,18H22V19H21zM24,18H25V19H24zM25,18H26V19H25zM27,18H28V19H27zM29,18H30V19H29zM30,18H31V19H30zM32,18H33V19H32zM33,18H34V19H33zM35,18H36V19H35zM7,19H8V20H7zM8,19H9V20H8zM9,19H10V20H9zM11,19H12V20H11zM12,19H13V20H12zM14,19H15V20H14zM17,19H18V20H17zM19,19H20V20H19zM21,19H22V20H21zM23,19H24V20H23zM25,19H26V20H25zM27,19H28V20H27zM30,19H31V20H30zM31,19H32V20H31zM32,19H33V20H32zM35,19H36V20H35zM7,20H8V21H7zM10,20H11V21H10zM11,20H12V21H11zM12,20H13V21H12zM15,20H16V21H15zM21,20H22V21H21zM23,20H24V21H23zM24,20H25V21H24zM25,20H26V21H25zM26,20H27V21H26zM30,20H31V21H30zM32,20H33V21H32zM35,20H36V21H35zM4,21H5V22H4zM5,21H6V22H5zM6,21H7V22H6zM7,21H8V22H7zM9,21H10V22H9zM12,21H13V22H12zM13,21H14V22H13zM16,21H17V22H16zM18,21H19V22H18zM20,21H21V22H20zM25,21H26V22H25zM27,21H28V22H27zM28,21H29V22H28zM29,21H30V22H29zM31,21H32V22H31zM33,21H34V22H33zM35,21H36V22H35zM5,22H6V23H5zM10,22H11V23H10zM11,22H12V23H11zM12,22H13V23H12zM15,22H16V23H15zM16,22H17V23H16zM22,22H23V23H22zM26,22H27V23H26zM29,22H30V23H29zM34,22H35V23H34zM36,22H37V23H36zM4,23H5V24H4zM5,23H6V24H5zM6,23H7V24H6zM7,23H8V24H7zM8,23H9V24H8zM9,23H10V24H9zM11,23H12V24H11zM13,23H14V24H13zM15,23H16V24H15zM16,23H17V24H16zM19,23H20V24H19zM21,23H22V24H21zM22,23H23V24H22zM24,23H25V24H24zM25,23H26V24H25zM27,23H28V24H27zM30,23H31V24H30zM31,23H32V24H31zM4,24H5V25H4zM6,24H7V25H6zM10,24H11V25H10zM13,24H14V25H13zM16,24H17V25H16zM17,24H18V25H17zM18,24H19V25H18zM19,24H20V25H19zM20,24H21V25H20zM21,24H22V25H21zM22,24H23V25H22zM23,24H24V25H23zM26,24H27V25H26zM28,24H29V25H28zM29,24H30V25H29zM35,24H36V25H35zM36,24H37V25H36zM5,25H6V26H5zM7,25H8V26H7zM8,25H9V26H8zM9,25H10V26H9zM12,25H13V26H12zM13,25H14V26H13zM15,25H16V26H15zM16,25H17V26H16zM17,25H18V26H17zM19,25H20V26H19zM20,25H21V26H20zM21,25H22V26H21zM22,25H23V26H22zM23,25H24V26H23zM24,25H25V26H24zM25,25H26V26H25zM26,25H27V26H26zM28,25H29V26H28zM30,25H31V26H30zM33,25H34V26H33zM35,25H36V26H35zM36,25H37V26H36zM4,26H5V27H4zM5,26H6V27H5zM6,26H7V27H6zM7,26H8V27H7zM8,26H9V27H8zM10,26H11V27H10zM12,26H13V27H12zM13,26H14V27H13zM17,26H18V27H17zM18,26H19V27H18zM19,26H20V27H19zM21,26H22V27H21zM24,26H25V27H24zM25,26H26V27H25zM26,26H27V27H26zM28,26H29V27H28zM32,26H33V27H32zM33,26H34V27H33zM34,26H35V27H34zM36,26H37V27H36zM5,27H6V28H5zM7,27H8V28H7zM9,27H10V28H9zM11,27H12V28H11zM13,27H14V28H13zM16,27H17V28H16zM18,27H19V28H18zM20,27H21V28H20zM22,27H23V28H22zM25,27H26V28H25zM26,27H27V28H26zM30,27H31V28H30zM32,27H33V28H32zM33,27H34V28H33zM36,27H37V28H36zM4,28H5V29H4zM6,28H7V29H6zM7,28H8V29H7zM8,28H9V29H8zM10,28H11V29H10zM13,28H14V29H13zM17,28H18V29H17zM19,28H20V29H19zM20,28H21V29H20zM21,28H22V29H21zM23,28H24V29H23zM24,28H25V29H24zM25,28H26V29H25zM26,28H27V29H26zM28,28H29V29H28zM29,28H30V29H29zM30,28H31V29H30zM31,28H32V29H31zM32,28H33V29H32zM35,28H36V29H35zM12,29H13V30H12zM13,29H14V30H13zM16,29H17V30H16zM17,29H18V30H17zM18,29H19V30H18zM20,29H21V30H20zM23,29H24V30H23zM27,29H28V30H27zM28,29H29V30H28zM32,29H33V30H32zM33,29H34V30H33zM36,29H37V30H36zM4,30H5V31H4zM5,30H6V31H5zM6,30H7V31H6zM7,30H8V31H7zM8,30H9V31H8zM9,30H10V31H9zM10,30H11V31H10zM15,30H16V31H15zM16,30H17V31H16zM17,30H18V31H17zM18,30H19V31H18zM20,30H21V31H20zM24,30H25V31H24zM25,30H26V31H25zM28,30H29V31H28zM30,30H31V31H30zM32,30H33V31H32zM33,30H34V31H33zM34,30H35V31H34zM35,30H36V31H35zM4,31H5V32H4zM10,31H11V32H10zM12,31H13V32H12zM14,31H15V32H14zM17,31H18V32H17zM18,31H19V32H18zM20,31H21V32H20zM23,31H24V32H23zM28,31H29V32H28zM32,31H33V32H32zM4,32H5V33H4zM6,32H7V33H6zM7,32H8V33H7zM8,32H9V33H8zM10,32H11V33H10zM13,32H14V33H13zM15,32H16V33H15zM18,32H19V33H18zM19,32H20V33H19zM20,32H21V33H20zM23,32H24V33H23zM26,32H27V33H26zM28,32H29V33H28zM29,32H30V33H29zM30,32H31V33H30zM31,32H32V33H31zM32,32H33V33H32zM33,32H34V33H33zM35,32H36V33H35zM36,32H37V33H36zM4,33H5V34H4zM6,33H7V34H6zM7,33H8V34H7zM8,33H9V34H8zM10,33H11V34H10zM12,33H13V34H12zM13,33H14V34H13zM18,33H19V34H18zM19,33H20V34H19zM23,33H24V34H23zM24,33H25V34H24zM25,33H26V34H25zM27,33H28V34H27zM30,33H31V34H30zM32,33H33V34H32zM33,33H34V34H33zM35,33H36V34H35zM4,34H5V35H4zM6,34H7V35H6zM7,34H8V35H7zM8,34H9V35H8zM10,34H11V35H10zM14,34H15V35H14zM15,34H16V35H15zM16,34H17V35H16zM18,34H19V35H18zM25,34H26V35H25zM26,34H27V35H26zM28,34H29V35H28zM32,34H33V35H32zM33,34H34V35H33zM36,34H37V35H36zM4,35H5V36H4zM10,35H11V36H10zM14,35H15V36H14zM15,35H16V36H15zM19,35H20V36H19zM20,35H21V36H20zM21,35H22V36H21zM22,35H23V36H22zM25,35H26V36H25zM26,35H27V36H26zM28,35H29V36H28zM33,35H34V36H33zM4,36H5V37H4zM5,36H6V37H5zM6,36H7V37H6zM7,36H8V37H7zM8,36H9V37H8zM9,36H10V37H9zM10,36H11V37H10zM12,36H13V37H12zM13,36H14V37H13zM16,36H17V37H16zM20,36H21V37H20zM24,36H25V37H24zM25,36H26V37H25zM26,36H27V37H26zM28,36H29V37H28zM29,36H30V37H29zM30,36H31V37H30zM32,36H33V37H32zM33,36H34V37H33zM35,36H36V37H35z" id="qr-path" fill="#000000" fill-opacity="1" fill-rule="nonzero" stroke="none"/></svg>